<mxfile host="65bd71144e">
    <diagram id="Xa3FvxjlA5h-z_YmoVg2" name="Page-1">
        <mxGraphModel dx="1127" dy="621" grid="1" gridSize="10" guides="1" tooltips="1" connect="1" arrows="1" fold="1" page="1" pageScale="1" pageWidth="1500" pageHeight="2000" math="0" shadow="0">
            <root>
                <mxCell id="0"/>
                <mxCell id="1" parent="0"/>
                <mxCell id="2" value="" style="rounded=0;whiteSpace=wrap;html=1;" parent="1" vertex="1">
                    <mxGeometry x="50" y="40" width="330" height="380" as="geometry"/>
                </mxCell>
                <mxCell id="3" value="&lt;font color=&quot;#000000&quot; style=&quot;font-size: 19px;&quot;&gt;class Parking&lt;/font&gt;" style="rounded=0;whiteSpace=wrap;html=1;fillColor=#1ba1e2;fontColor=#ffffff;strokeColor=#006EAF;" parent="1" vertex="1">
                    <mxGeometry x="50" y="40" width="330" height="60" as="geometry"/>
                </mxCell>
                <mxCell id="4" value="&lt;span style=&quot;box-sizing: border-box; font-weight: var(--base-text-weight-semibold, 600); color: rgb(240, 246, 252); font-family: -apple-system, BlinkMacSystemFont, &amp;quot;Segoe UI&amp;quot;, &amp;quot;Noto Sans&amp;quot;, Helvetica, Arial, sans-serif, &amp;quot;Apple Color Emoji&amp;quot;, &amp;quot;Segoe UI Emoji&amp;quot;; font-size: 16px; text-align: left; background-color: rgb(13, 17, 23);&quot;&gt;string getCurrentDateTime()&lt;/span&gt;" style="rounded=0;whiteSpace=wrap;html=1;fontSize=19;strokeWidth=0;" parent="1" vertex="1">
                    <mxGeometry x="50" y="100" width="330" height="40" as="geometry"/>
                </mxCell>
                <mxCell id="5" value="&lt;span style=&quot;box-sizing: border-box; font-weight: var(--base-text-weight-semibold, 600); color: rgb(240, 246, 252); font-family: -apple-system, BlinkMacSystemFont, &amp;quot;Segoe UI&amp;quot;, &amp;quot;Noto Sans&amp;quot;, Helvetica, Arial, sans-serif, &amp;quot;Apple Color Emoji&amp;quot;, &amp;quot;Segoe UI Emoji&amp;quot;; font-size: 16px; text-align: left; background-color: rgb(13, 17, 23);&quot;&gt;long int getParkingTime()&lt;/span&gt;" style="rounded=0;whiteSpace=wrap;html=1;fontSize=19;" parent="1" vertex="1">
                    <mxGeometry x="50" y="140" width="330" height="40" as="geometry"/>
                </mxCell>
                <mxCell id="7" value="&lt;span style=&quot;box-sizing: border-box; font-weight: var(--base-text-weight-semibold, 600); color: rgb(240, 246, 252); font-family: -apple-system, BlinkMacSystemFont, &amp;quot;Segoe UI&amp;quot;, &amp;quot;Noto Sans&amp;quot;, Helvetica, Arial, sans-serif, &amp;quot;Apple Color Emoji&amp;quot;, &amp;quot;Segoe UI Emoji&amp;quot;; font-size: 16px; text-align: left; background-color: rgb(13, 17, 23);&quot;&gt;bool ParkVehicle()&lt;/span&gt;" style="rounded=0;whiteSpace=wrap;html=1;fontSize=19;" parent="1" vertex="1">
                    <mxGeometry x="50" y="180" width="330" height="40" as="geometry"/>
                </mxCell>
                <mxCell id="8" value="&lt;span style=&quot;box-sizing: border-box; font-weight: var(--base-text-weight-semibold, 600); color: rgb(240, 246, 252); font-family: -apple-system, BlinkMacSystemFont, &amp;quot;Segoe UI&amp;quot;, &amp;quot;Noto Sans&amp;quot;, Helvetica, Arial, sans-serif, &amp;quot;Apple Color Emoji&amp;quot;, &amp;quot;Segoe UI Emoji&amp;quot;; font-size: 16px; text-align: left; background-color: rgb(13, 17, 23);&quot;&gt;bool removeVehicle()&lt;/span&gt;" style="rounded=0;whiteSpace=wrap;html=1;fontSize=19;" parent="1" vertex="1">
                    <mxGeometry x="50" y="220" width="330" height="40" as="geometry"/>
                </mxCell>
                <mxCell id="9" value="&lt;span style=&quot;box-sizing: border-box; font-weight: var(--base-text-weight-semibold, 600); color: rgb(240, 246, 252); font-family: -apple-system, BlinkMacSystemFont, &amp;quot;Segoe UI&amp;quot;, &amp;quot;Noto Sans&amp;quot;, Helvetica, Arial, sans-serif, &amp;quot;Apple Color Emoji&amp;quot;, &amp;quot;Segoe UI Emoji&amp;quot;; font-size: 16px; text-align: left; background-color: rgb(13, 17, 23);&quot;&gt;void displayParkingLot()&lt;/span&gt;" style="rounded=0;whiteSpace=wrap;html=1;fontSize=19;" parent="1" vertex="1">
                    <mxGeometry x="50" y="260" width="330" height="40" as="geometry"/>
                </mxCell>
                <mxCell id="10" value="&lt;span style=&quot;box-sizing: border-box; font-weight: var(--base-text-weight-semibold, 600); color: rgb(240, 246, 252); font-family: -apple-system, BlinkMacSystemFont, &amp;quot;Segoe UI&amp;quot;, &amp;quot;Noto Sans&amp;quot;, Helvetica, Arial, sans-serif, &amp;quot;Apple Color Emoji&amp;quot;, &amp;quot;Segoe UI Emoji&amp;quot;; font-size: 16px; text-align: left; background-color: rgb(13, 17, 23);&quot;&gt;void logChargesToFile()&lt;/span&gt;" style="rounded=0;whiteSpace=wrap;html=1;fontSize=19;" parent="1" vertex="1">
                    <mxGeometry x="50" y="300" width="330" height="40" as="geometry"/>
                </mxCell>
                <mxCell id="11" value="&lt;span style=&quot;box-sizing: border-box; font-weight: var(--base-text-weight-semibold, 600); color: rgb(240, 246, 252); font-family: -apple-system, BlinkMacSystemFont, &amp;quot;Segoe UI&amp;quot;, &amp;quot;Noto Sans&amp;quot;, Helvetica, Arial, sans-serif, &amp;quot;Apple Color Emoji&amp;quot;, &amp;quot;Segoe UI Emoji&amp;quot;; font-size: 16px; text-align: left; background-color: rgb(13, 17, 23);&quot;&gt;void saveParkingToFile()&lt;/span&gt;" style="rounded=0;whiteSpace=wrap;html=1;fontSize=19;" parent="1" vertex="1">
                    <mxGeometry x="50" y="340" width="330" height="40" as="geometry"/>
                </mxCell>
                <mxCell id="12" value="&lt;span style=&quot;box-sizing: border-box; font-weight: var(--base-text-weight-semibold, 600); color: rgb(240, 246, 252); font-family: -apple-system, BlinkMacSystemFont, &amp;quot;Segoe UI&amp;quot;, &amp;quot;Noto Sans&amp;quot;, Helvetica, Arial, sans-serif, &amp;quot;Apple Color Emoji&amp;quot;, &amp;quot;Segoe UI Emoji&amp;quot;; font-size: 16px; text-align: left; background-color: rgb(13, 17, 23);&quot;&gt;void loadParkingLotFromFile()&lt;/span&gt;" style="rounded=0;whiteSpace=wrap;html=1;fontSize=19;" parent="1" vertex="1">
                    <mxGeometry x="50" y="380" width="330" height="40" as="geometry"/>
                </mxCell>
                <mxCell id="23" value="&lt;font color=&quot;#000000&quot;&gt;class Vehicle&lt;/font&gt;" style="rounded=0;whiteSpace=wrap;html=1;strokeWidth=0;fontSize=19;fontColor=#ffffff;fillColor=#1ba1e2;strokeColor=#006EAF;" parent="1" vertex="1">
                    <mxGeometry x="650" y="40" width="270" height="60" as="geometry"/>
                </mxCell>
                <mxCell id="26" value="&lt;span style=&quot;box-sizing: border-box; font-weight: var(--base-text-weight-semibold, 600); color: rgb(240, 246, 252); font-family: -apple-system, BlinkMacSystemFont, &amp;quot;Segoe UI&amp;quot;, &amp;quot;Noto Sans&amp;quot;, Helvetica, Arial, sans-serif, &amp;quot;Apple Color Emoji&amp;quot;, &amp;quot;Segoe UI Emoji&amp;quot;; font-size: 16px; text-align: left; background-color: rgb(13, 17, 23);&quot;&gt;string getLicensePlate()&lt;/span&gt;" style="rounded=0;whiteSpace=wrap;html=1;fontSize=19;strokeWidth=0;" parent="1" vertex="1">
                    <mxGeometry x="650" y="100" width="270" height="40" as="geometry"/>
                </mxCell>
                <mxCell id="27" value="&lt;span style=&quot;box-sizing: border-box; font-weight: var(--base-text-weight-semibold, 600); color: rgb(240, 246, 252); font-family: -apple-system, BlinkMacSystemFont, &amp;quot;Segoe UI&amp;quot;, &amp;quot;Noto Sans&amp;quot;, Helvetica, Arial, sans-serif, &amp;quot;Apple Color Emoji&amp;quot;, &amp;quot;Segoe UI Emoji&amp;quot;; font-size: 16px; text-align: left; background-color: rgb(13, 17, 23);&quot;&gt;string getEntryTime()&lt;/span&gt;" style="rounded=0;whiteSpace=wrap;html=1;fontSize=19;strokeWidth=0;" parent="1" vertex="1">
                    <mxGeometry x="650" y="140" width="270" height="40" as="geometry"/>
                </mxCell>
                <mxCell id="35" style="edgeStyle=none;html=1;entryX=0.465;entryY=-0.02;entryDx=0;entryDy=0;entryPerimeter=0;fontSize=19;fontColor=#000000;" parent="1" source="28" target="29" edge="1">
                    <mxGeometry relative="1" as="geometry"/>
                </mxCell>
                <mxCell id="37" style="edgeStyle=none;html=1;entryX=0.429;entryY=-0.04;entryDx=0;entryDy=0;entryPerimeter=0;fontSize=19;fontColor=#000000;" parent="1" source="28" target="32" edge="1">
                    <mxGeometry relative="1" as="geometry"/>
                </mxCell>
                <mxCell id="28" value="&lt;span style=&quot;box-sizing: border-box; font-weight: var(--base-text-weight-semibold, 600); color: rgb(240, 246, 252); font-family: -apple-system, BlinkMacSystemFont, &amp;quot;Segoe UI&amp;quot;, &amp;quot;Noto Sans&amp;quot;, Helvetica, Arial, sans-serif, &amp;quot;Apple Color Emoji&amp;quot;, &amp;quot;Segoe UI Emoji&amp;quot;; font-size: 16px; text-align: left; background-color: rgb(13, 17, 23);&quot;&gt;virtual double getChargesPerMinute()&lt;/span&gt;" style="rounded=0;whiteSpace=wrap;html=1;fontSize=19;strokeWidth=0;" parent="1" vertex="1">
                    <mxGeometry x="650" y="180" width="270" height="70" as="geometry"/>
                </mxCell>
                <mxCell id="29" value="&lt;font color=&quot;#000000&quot;&gt;class Car&lt;/font&gt;" style="rounded=0;whiteSpace=wrap;html=1;strokeWidth=0;fontSize=19;fontColor=#ffffff;fillColor=#1ba1e2;strokeColor=#006EAF;" parent="1" vertex="1">
                    <mxGeometry x="500" y="280" width="170" height="50" as="geometry"/>
                </mxCell>
                <mxCell id="31" value="&lt;span style=&quot;color: rgb(240, 246, 252); font-family: -apple-system, BlinkMacSystemFont, &amp;quot;Segoe UI&amp;quot;, &amp;quot;Noto Sans&amp;quot;, Helvetica, Arial, sans-serif, &amp;quot;Apple Color Emoji&amp;quot;, &amp;quot;Segoe UI Emoji&amp;quot;; font-size: 16px; font-weight: 600; text-align: left; background-color: rgb(13, 17, 23);&quot;&gt;&amp;nbsp;double getChargesPerMinute()&lt;/span&gt;" style="rounded=0;whiteSpace=wrap;html=1;strokeWidth=0;fontSize=19;" parent="1" vertex="1">
                    <mxGeometry x="500" y="330" width="170" height="90" as="geometry"/>
                </mxCell>
                <mxCell id="32" value="&lt;font color=&quot;#1a1a1a&quot;&gt;Bike&lt;/font&gt;" style="rounded=0;whiteSpace=wrap;html=1;strokeWidth=0;fontSize=19;fontColor=#ffffff;fillColor=#1ba1e2;strokeColor=#006EAF;" parent="1" vertex="1">
                    <mxGeometry x="900" y="280" width="170" height="50" as="geometry"/>
                </mxCell>
                <mxCell id="33" value="&lt;span style=&quot;color: rgb(240, 246, 252); font-family: -apple-system, BlinkMacSystemFont, &amp;quot;Segoe UI&amp;quot;, &amp;quot;Noto Sans&amp;quot;, Helvetica, Arial, sans-serif, &amp;quot;Apple Color Emoji&amp;quot;, &amp;quot;Segoe UI Emoji&amp;quot;; font-size: 16px; font-weight: 600; text-align: left; background-color: rgb(13, 17, 23);&quot;&gt;&amp;nbsp;double getChargesPerMinute()&lt;/span&gt;" style="rounded=0;whiteSpace=wrap;html=1;strokeWidth=0;fontSize=19;" parent="1" vertex="1">
                    <mxGeometry x="900" y="330" width="170" height="90" as="geometry"/>
                </mxCell>
                <mxCell id="64" style="edgeStyle=none;html=1;entryX=0;entryY=0.5;entryDx=0;entryDy=0;fontSize=19;fontColor=#FFFFFF;strokeColor=#FFFFFF;" parent="1" source="42" edge="1">
                    <mxGeometry relative="1" as="geometry">
                        <mxPoint x="270" y="550" as="targetPoint"/>
                    </mxGeometry>
                </mxCell>
                <mxCell id="42" value="Vehicle" style="rounded=0;whiteSpace=wrap;html=1;strokeWidth=0;fontSize=19;strokeColor=#999999;fillColor=#999999;" parent="1" vertex="1">
                    <mxGeometry x="40" y="520" width="190" height="60" as="geometry"/>
                </mxCell>
                <mxCell id="43" value="" style="rounded=0;whiteSpace=wrap;html=1;strokeWidth=0;fontSize=19;fillColor=#1BA1E2;fontColor=#ffffff;strokeColor=#006EAF;" parent="1" vertex="1">
                    <mxGeometry x="271.66" y="520" width="978.34" height="1150" as="geometry"/>
                </mxCell>
                <mxCell id="50" style="edgeStyle=none;html=1;fontSize=19;fontColor=#000000;" parent="1" target="43" edge="1">
                    <mxGeometry relative="1" as="geometry">
                        <mxPoint x="461.15878048780496" y="520" as="sourcePoint"/>
                    </mxGeometry>
                </mxCell>
                <mxCell id="51" style="edgeStyle=none;html=1;fontSize=19;fontColor=#000000;" parent="1" target="43" edge="1">
                    <mxGeometry relative="1" as="geometry">
                        <mxPoint x="461.15878048780496" y="520" as="sourcePoint"/>
                        <mxPoint x="377.5" y="650" as="targetPoint"/>
                    </mxGeometry>
                </mxCell>
                <mxCell id="68" value="" style="rounded=0;whiteSpace=wrap;html=1;strokeWidth=0;fontSize=19;" parent="1" vertex="1">
                    <mxGeometry x="380" y="650" width="760" height="920" as="geometry"/>
                </mxCell>
                <mxCell id="75" style="edgeStyle=none;html=1;fontSize=19;fontColor=#FFFFFF;" parent="1" source="69" target="74" edge="1">
                    <mxGeometry relative="1" as="geometry"/>
                </mxCell>
                <mxCell id="69" value="Floor = 0, spot = 0" style="rounded=0;whiteSpace=wrap;html=1;strokeWidth=0;fontSize=19;fillColor=#999999;fontColor=#ffffff;strokeColor=#006EAF;gradientColor=none;" parent="1" vertex="1">
                    <mxGeometry x="380" y="640" width="760" height="50" as="geometry"/>
                </mxCell>
                <mxCell id="73" style="edgeStyle=none;html=1;entryX=0.5;entryY=0;entryDx=0;entryDy=0;fontSize=19;fontColor=#FFFFFF;" parent="1" source="71" target="68" edge="1">
                    <mxGeometry relative="1" as="geometry"/>
                </mxCell>
                <mxCell id="71" value="bool parkVehicle(Car or Bike, getCurrentDateTime())" style="rounded=0;whiteSpace=wrap;html=1;strokeWidth=0;fontSize=19;fontColor=#FFFFFF;fillColor=#999999;gradientColor=none;" parent="1" vertex="1">
                    <mxGeometry x="270" y="520" width="980" height="60" as="geometry"/>
                </mxCell>
                <mxCell id="78" value="&lt;font color=&quot;#000000&quot;&gt;NULL&lt;/font&gt;" style="edgeStyle=none;html=1;fontSize=19;fontColor=#FFFFFF;" parent="1" source="74" target="76" edge="1">
                    <mxGeometry relative="1" as="geometry"/>
                </mxCell>
                <mxCell id="82" value="&lt;font color=&quot;#000000&quot;&gt;NOT NULL&lt;/font&gt;" style="edgeStyle=none;html=1;fontSize=19;fontColor=#FFFFFF;" parent="1" source="74" target="80" edge="1">
                    <mxGeometry relative="1" as="geometry"/>
                </mxCell>
                <mxCell id="74" value="if(parkingSpot)" style="html=1;whiteSpace=wrap;aspect=fixed;shape=isoRectangle;strokeWidth=0;fontSize=19;fontColor=#FFFFFF;fillColor=#999999;gradientColor=none;" parent="1" vertex="1">
                    <mxGeometry x="685.83" y="1132.5" width="150" height="90" as="geometry"/>
                </mxCell>
                <mxCell id="98" style="edgeStyle=none;html=1;fontSize=19;fontColor=#FFFFFF;" parent="1" source="76" target="96" edge="1">
                    <mxGeometry relative="1" as="geometry"/>
                </mxCell>
                <mxCell id="76" value="VehicleParked" style="rounded=0;whiteSpace=wrap;html=1;strokeColor=#999999;strokeWidth=0;fontSize=19;fontColor=#FFFFFF;fillColor=#999999;gradientColor=none;" parent="1" vertex="1">
                    <mxGeometry x="690.83" y="1430" width="140" height="60" as="geometry"/>
                </mxCell>
                <mxCell id="80" value="CheckNext&lt;br&gt;(spot++)" style="rounded=0;whiteSpace=wrap;html=1;strokeColor=#999999;strokeWidth=0;fontSize=19;fontColor=#FFFFFF;fillColor=#999999;gradientColor=none;" parent="1" vertex="1">
                    <mxGeometry x="1005" y="1150" width="120" height="55" as="geometry"/>
                </mxCell>
                <mxCell id="103" style="edgeStyle=none;html=1;fontSize=19;fontColor=#000000;" parent="1" source="86" target="68" edge="1">
                    <mxGeometry relative="1" as="geometry">
                        <mxPoint x="770" y="1135" as="targetPoint"/>
                    </mxGeometry>
                </mxCell>
                <mxCell id="105" style="edgeStyle=none;html=1;fontSize=19;fontColor=#FFFFFF;" parent="1" source="86" target="68" edge="1">
                    <mxGeometry relative="1" as="geometry"/>
                </mxCell>
                <mxCell id="106" style="edgeStyle=none;html=1;fontSize=19;fontColor=#FFFFFF;" parent="1" source="86" target="68" edge="1">
                    <mxGeometry relative="1" as="geometry"/>
                </mxCell>
                <mxCell id="107" value="YES" style="edgeStyle=none;html=1;entryX=1;entryY=0.5;entryDx=0;entryDy=0;fontSize=19;fontColor=#000000;" parent="1" source="86" target="93" edge="1">
                    <mxGeometry relative="1" as="geometry">
                        <Array as="points">
                            <mxPoint x="1065" y="775"/>
                        </Array>
                    </mxGeometry>
                </mxCell>
                <mxCell id="109" value="NO" style="edgeStyle=none;html=1;fontSize=19;fontColor=#000000;" parent="1" source="86" edge="1">
                    <mxGeometry relative="1" as="geometry">
                        <mxPoint x="760" y="965" as="targetPoint"/>
                    </mxGeometry>
                </mxCell>
                <mxCell id="86" value="if(spot == lastspot)" style="html=1;whiteSpace=wrap;aspect=fixed;shape=isoRectangle;strokeColor=#999999;strokeWidth=0;fontSize=19;fontColor=#FFFFFF;fillColor=#999999;gradientColor=none;" parent="1" vertex="1">
                    <mxGeometry x="990" y="920" width="150" height="90" as="geometry"/>
                </mxCell>
                <mxCell id="92" value="" style="endArrow=classic;html=1;fontSize=19;fontColor=#FFFFFF;exitX=0.5;exitY=0;exitDx=0;exitDy=0;" parent="1" source="80" target="86" edge="1">
                    <mxGeometry width="50" height="50" relative="1" as="geometry">
                        <mxPoint x="920" y="870" as="sourcePoint"/>
                        <mxPoint x="970" y="820" as="targetPoint"/>
                    </mxGeometry>
                </mxCell>
                <mxCell id="95" style="edgeStyle=none;html=1;fontSize=19;fontColor=#FFFFFF;" parent="1" source="93" edge="1">
                    <mxGeometry relative="1" as="geometry">
                        <mxPoint x="760" y="775" as="targetPoint"/>
                    </mxGeometry>
                </mxCell>
                <mxCell id="93" value="NextFloor&lt;br&gt;floor++,&lt;br&gt;spot= 0," style="rounded=0;whiteSpace=wrap;html=1;strokeColor=#999999;strokeWidth=0;fontSize=19;fontColor=#FFFFFF;fillColor=#999999;gradientColor=none;" parent="1" vertex="1">
                    <mxGeometry x="820" y="740" width="120" height="70" as="geometry"/>
                </mxCell>
                <mxCell id="101" style="edgeStyle=none;html=1;fontSize=19;fontColor=#FFFFFF;strokeColor=#FFFFFF;" parent="1" source="96" target="99" edge="1">
                    <mxGeometry relative="1" as="geometry"/>
                </mxCell>
                <mxCell id="96" value="Save to parking_lot.txt&lt;br&gt;" style="strokeWidth=2;html=1;shape=mxgraph.flowchart.document2;whiteSpace=wrap;size=0.25;strokeColor=#999999;fontSize=19;fontColor=#FFFFFF;fillColor=#999999;gradientColor=none;" parent="1" vertex="1">
                    <mxGeometry x="960" y="1415" width="140" height="90" as="geometry"/>
                </mxCell>
                <mxCell id="99" value="&lt;font color=&quot;#000000&quot;&gt;parking_lot.txt&lt;/font&gt;" style="html=1;verticalLabelPosition=bottom;align=center;labelBackgroundColor=#ffffff;verticalAlign=top;strokeWidth=2;strokeColor=#0080F0;shadow=0;dashed=0;shape=mxgraph.ios7.icons.document;fontSize=19;fontColor=#FFFFFF;fillColor=#999999;gradientColor=none;" parent="1" vertex="1">
                    <mxGeometry x="1380" y="1410" width="60" height="100" as="geometry"/>
                </mxCell>
                <mxCell id="110" value="" style="rounded=0;whiteSpace=wrap;html=1;strokeWidth=0;fontSize=19;fillColor=#1BA1E2;fontColor=#ffffff;strokeColor=#006EAF;" parent="1" vertex="1">
                    <mxGeometry x="310" y="1840" width="940" height="1650" as="geometry"/>
                </mxCell>
                <mxCell id="153" style="edgeStyle=none;html=1;fontSize=19;fontColor=#FFFFFF;" parent="1" source="114" target="110" edge="1">
                    <mxGeometry relative="1" as="geometry"/>
                </mxCell>
                <mxCell id="154" style="edgeStyle=none;html=1;entryX=0.5;entryY=0;entryDx=0;entryDy=0;fontSize=19;fontColor=#FFFFFF;" parent="1" source="114" target="116" edge="1">
                    <mxGeometry relative="1" as="geometry"/>
                </mxCell>
                <mxCell id="114" value="bool removeVehicle(licensePlate)" style="rounded=0;whiteSpace=wrap;html=1;strokeWidth=0;fontSize=19;fontColor=#FFFFFF;fillColor=#999999;gradientColor=none;" parent="1" vertex="1">
                    <mxGeometry x="310" y="1840" width="941.66" height="60" as="geometry"/>
                </mxCell>
                <mxCell id="115" value="" style="rounded=0;whiteSpace=wrap;html=1;strokeWidth=0;fontSize=19;" parent="1" vertex="1">
                    <mxGeometry x="400" y="1990" width="760" height="1440" as="geometry"/>
                </mxCell>
                <mxCell id="119" style="edgeStyle=none;html=1;fontSize=19;fontColor=#FFFFFF;" parent="1" source="116" target="115" edge="1">
                    <mxGeometry relative="1" as="geometry"/>
                </mxCell>
                <mxCell id="120" style="edgeStyle=none;html=1;fontSize=19;fontColor=#FFFFFF;" parent="1" source="116" target="118" edge="1">
                    <mxGeometry relative="1" as="geometry"/>
                </mxCell>
                <mxCell id="116" value="Floor = 0, spot = 0" style="rounded=0;whiteSpace=wrap;html=1;strokeWidth=0;fontSize=19;fillColor=#999999;fontColor=#ffffff;strokeColor=#006EAF;gradientColor=none;" parent="1" vertex="1">
                    <mxGeometry x="400" y="1990" width="760" height="50" as="geometry"/>
                </mxCell>
                <mxCell id="122" value="NO" style="edgeStyle=none;html=1;fontSize=19;fontColor=#000000;" parent="1" source="118" target="121" edge="1">
                    <mxGeometry relative="1" as="geometry">
                        <mxPoint as="offset"/>
                    </mxGeometry>
                </mxCell>
                <mxCell id="133" style="edgeStyle=none;html=1;fontSize=19;fontColor=#FFFFFF;" parent="1" source="118" target="131" edge="1">
                    <mxGeometry relative="1" as="geometry"/>
                </mxCell>
                <mxCell id="118" value="if(lvehicle.licensePlate&lt;br&gt;==licensePlate" style="html=1;whiteSpace=wrap;aspect=fixed;shape=isoRectangle;strokeColor=#999999;strokeWidth=0;fontSize=19;fontColor=#FFFFFF;fillColor=#999999;gradientColor=none;" parent="1" vertex="1">
                    <mxGeometry x="640" y="2450" width="280" height="168" as="geometry"/>
                </mxCell>
                <mxCell id="125" style="edgeStyle=none;html=1;fontSize=19;fontColor=#FFFFFF;" parent="1" source="121" target="123" edge="1">
                    <mxGeometry relative="1" as="geometry"/>
                </mxCell>
                <mxCell id="121" value="CheckNextSpot&lt;br&gt;spot++" style="whiteSpace=wrap;html=1;fontSize=19;fillColor=#999999;strokeColor=#999999;fontColor=#FFFFFF;strokeWidth=0;gradientColor=none;" parent="1" vertex="1">
                    <mxGeometry x="1010" y="2504" width="140" height="60" as="geometry"/>
                </mxCell>
                <mxCell id="126" value="NO" style="edgeStyle=none;html=1;fontSize=19;fontColor=#000000;" parent="1" source="123" edge="1">
                    <mxGeometry relative="1" as="geometry">
                        <mxPoint x="780" y="2355" as="targetPoint"/>
                    </mxGeometry>
                </mxCell>
                <mxCell id="129" value="&lt;font color=&quot;#000000&quot;&gt;YES&lt;/font&gt;" style="edgeStyle=none;html=1;entryX=1;entryY=0.25;entryDx=0;entryDy=0;fontSize=19;fontColor=#FFFFFF;" parent="1" source="123" target="127" edge="1">
                    <mxGeometry relative="1" as="geometry">
                        <Array as="points">
                            <mxPoint x="1080" y="2115"/>
                        </Array>
                    </mxGeometry>
                </mxCell>
                <mxCell id="123" value="if(spot == lastspot)" style="html=1;whiteSpace=wrap;aspect=fixed;shape=isoRectangle;strokeColor=#999999;strokeWidth=0;fontSize=19;fontColor=#FFFFFF;fillColor=#999999;gradientColor=none;" parent="1" vertex="1">
                    <mxGeometry x="1005" y="2310" width="150" height="90" as="geometry"/>
                </mxCell>
                <mxCell id="130" style="edgeStyle=none;html=1;fontSize=19;fontColor=#FFFFFF;" parent="1" source="127" edge="1">
                    <mxGeometry relative="1" as="geometry">
                        <mxPoint x="780" y="2140" as="targetPoint"/>
                    </mxGeometry>
                </mxCell>
                <mxCell id="127" value="NextFloor&lt;br&gt;floor++,&lt;br&gt;spot=0" style="rounded=0;whiteSpace=wrap;html=1;strokeColor=#999999;strokeWidth=0;fontSize=19;fontColor=#FFFFFF;fillColor=#999999;gradientColor=none;" parent="1" vertex="1">
                    <mxGeometry x="885" y="2090" width="120" height="100" as="geometry"/>
                </mxCell>
                <mxCell id="135" style="edgeStyle=none;html=1;fontSize=19;fontColor=#FFFFFF;" parent="1" source="131" target="134" edge="1">
                    <mxGeometry relative="1" as="geometry"/>
                </mxCell>
                <mxCell id="131" value="exitTime = getCurrentDateTime()" style="rounded=0;whiteSpace=wrap;html=1;strokeColor=#999999;strokeWidth=0;fontSize=19;fontColor=#FFFFFF;fillColor=#999999;gradientColor=none;" parent="1" vertex="1">
                    <mxGeometry x="645" y="2700" width="270" height="60" as="geometry"/>
                </mxCell>
                <mxCell id="138" style="edgeStyle=none;html=1;entryX=0.5;entryY=0;entryDx=0;entryDy=0;fontSize=19;fontColor=#FFFFFF;" parent="1" source="134" target="137" edge="1">
                    <mxGeometry relative="1" as="geometry"/>
                </mxCell>
                <mxCell id="134" value="totalParkingTime=&lt;br&gt;getParkingTime(exitTime, entryTime)" style="rounded=0;whiteSpace=wrap;html=1;strokeColor=#999999;strokeWidth=0;fontSize=19;fontColor=#FFFFFF;fillColor=#999999;gradientColor=none;" parent="1" vertex="1">
                    <mxGeometry x="645" y="2840" width="270" height="80" as="geometry"/>
                </mxCell>
                <mxCell id="140" style="edgeStyle=none;html=1;entryX=0;entryY=0.5;entryDx=0;entryDy=0;fontSize=19;fontColor=#FFFFFF;" parent="1" source="137" target="139" edge="1">
                    <mxGeometry relative="1" as="geometry"/>
                </mxCell>
                <mxCell id="147" style="edgeStyle=none;html=1;entryX=0.5;entryY=0;entryDx=0;entryDy=0;fontSize=19;fontColor=#000000;" parent="1" source="137" target="145" edge="1">
                    <mxGeometry relative="1" as="geometry"/>
                </mxCell>
                <mxCell id="137" value="getCharges()" style="rounded=0;whiteSpace=wrap;html=1;strokeColor=#999999;strokeWidth=0;fontSize=19;fontColor=#FFFFFF;fillColor=#999999;gradientColor=none;" parent="1" vertex="1">
                    <mxGeometry x="680" y="3010" width="200" height="60" as="geometry"/>
                </mxCell>
                <mxCell id="142" style="edgeStyle=none;html=1;entryX=0.011;entryY=0.545;entryDx=0;entryDy=0;entryPerimeter=0;fontSize=19;fontColor=#FFFFFF;strokeColor=#FFFFFF;" parent="1" source="139" target="141" edge="1">
                    <mxGeometry relative="1" as="geometry"/>
                </mxCell>
                <mxCell id="139" value="Save to&lt;br&gt;charges.txt" style="shape=document;whiteSpace=wrap;html=1;boundedLbl=1;strokeColor=#999999;strokeWidth=0;fontSize=19;fontColor=#FFFFFF;fillColor=#999999;gradientColor=none;" parent="1" vertex="1">
                    <mxGeometry x="1010" y="3000" width="120" height="80" as="geometry"/>
                </mxCell>
                <mxCell id="141" value="&lt;font color=&quot;#000000&quot;&gt;charges.txt&lt;/font&gt;" style="html=1;verticalLabelPosition=bottom;align=center;labelBackgroundColor=#ffffff;verticalAlign=top;strokeWidth=2;strokeColor=#0080F0;shadow=0;dashed=0;shape=mxgraph.ios7.icons.document;fontSize=19;fontColor=#FFFFFF;fillColor=#999999;gradientColor=none;" parent="1" vertex="1">
                    <mxGeometry x="1349" y="2980" width="91" height="110" as="geometry"/>
                </mxCell>
                <mxCell id="149" style="edgeStyle=none;html=1;fontSize=19;fontColor=#FFFFFF;" parent="1" source="145" target="148" edge="1">
                    <mxGeometry relative="1" as="geometry"/>
                </mxCell>
                <mxCell id="145" value="&lt;font color=&quot;#ffffff&quot;&gt;parkingSpot == NULL&lt;/font&gt;" style="rounded=0;whiteSpace=wrap;html=1;strokeColor=#999999;strokeWidth=0;fontSize=19;fontColor=#000000;fillColor=#999999;gradientColor=none;" parent="1" vertex="1">
                    <mxGeometry x="680" y="3200" width="200" height="90" as="geometry"/>
                </mxCell>
                <mxCell id="151" style="edgeStyle=none;html=1;fontSize=19;fontColor=#FFFFFF;strokeColor=#FFFFFF;" parent="1" source="148" target="150" edge="1">
                    <mxGeometry relative="1" as="geometry"/>
                </mxCell>
                <mxCell id="148" value="Save to&lt;br&gt;parking_lot.txt" style="shape=document;whiteSpace=wrap;html=1;boundedLbl=1;strokeColor=#999999;strokeWidth=0;fontSize=19;fontColor=#FFFFFF;fillColor=#999999;gradientColor=none;" parent="1" vertex="1">
                    <mxGeometry x="1010" y="3205" width="120" height="80" as="geometry"/>
                </mxCell>
                <mxCell id="150" value="&lt;font color=&quot;#000000&quot;&gt;parking_lot.txt&lt;/font&gt;" style="html=1;verticalLabelPosition=bottom;align=center;labelBackgroundColor=#ffffff;verticalAlign=top;strokeWidth=2;strokeColor=#0080F0;shadow=0;dashed=0;shape=mxgraph.ios7.icons.document;fontSize=19;fontColor=#FFFFFF;fillColor=#999999;gradientColor=none;" parent="1" vertex="1">
                    <mxGeometry x="1364.5" y="3195" width="60" height="100" as="geometry"/>
                </mxCell>
                <mxCell id="156" style="edgeStyle=none;html=1;entryX=0;entryY=0.5;entryDx=0;entryDy=0;fontSize=19;fontColor=#FFFFFF;strokeColor=#FFFFFF;" parent="1" source="155" target="114" edge="1">
                    <mxGeometry relative="1" as="geometry"/>
                </mxCell>
                <mxCell id="155" value="Vehicle" style="rounded=0;whiteSpace=wrap;html=1;strokeWidth=0;fontSize=19;strokeColor=#999999;fillColor=#999999;" parent="1" vertex="1">
                    <mxGeometry x="40" y="1840" width="190" height="60" as="geometry"/>
                </mxCell>
            </root>
        </mxGraphModel>
    </diagram>
</mxfile>